<?xml version="1.0" standalone="no"?><!DOCTYPE svg PUBLIC "-//W3C//DTD SVG 1.1//EN" "http://www.w3.org/Graphics/SVG/1.1/DTD/svg11.dtd"><svg class="icon" width="200px" height="200.00px" viewBox="0 0 1024 1024" version="1.1" xmlns="http://www.w3.org/2000/svg"><path fill="#909399" d="M974.08 945.49504H76.8V48.128a23.04 23.04 0 0 0-23.04-23.04h-5.12A23.04 23.04 0 0 0 25.6 48.128v947.712h46.08v0.85504h902.4a23.04 23.04 0 0 0 23.04-23.04v-5.12a23.04 23.04 0 0 0-23.04-23.04zM160.42496 892.54912h102.4a25.6 25.6 0 0 0 25.6-25.6V377.17504a25.6 25.6 0 0 0-25.6-25.6h-102.4a25.6 25.6 0 0 0-25.6 25.6v489.77408a25.6 25.6 0 0 0 25.6 25.6z m424.96512 5.12h102.4a25.6 25.6 0 0 0 25.6-25.6V314.02496a25.6 25.6 0 0 0-25.6-25.6h-102.4a25.6 25.6 0 0 0-25.6 25.6v558.04416a25.6 25.6 0 0 0 25.6 25.6z m215.04 0h102.4a25.6 25.6 0 0 0 25.6-25.6V522.24a25.6 25.6 0 0 0-25.6-25.6h-102.4a25.6 25.6 0 0 0-25.6 25.6v349.82912a25.6 25.6 0 0 0 25.6 25.6z m-424.96512-5.12h102.4a25.6 25.6 0 0 0 25.6-25.6V172.37504a25.6 25.6 0 0 0-25.6-25.6h-102.4a25.6 25.6 0 0 0-25.6 25.6v694.57408a25.6 25.6 0 0 0 25.6 25.6z"  /></svg>