<?xml version="1.0" standalone="no"?><!DOCTYPE svg PUBLIC "-//W3C//DTD SVG 1.1//EN" "http://www.w3.org/Graphics/SVG/1.1/DTD/svg11.dtd"><svg class="icon" width="200px" height="200.00px" viewBox="0 0 1024 1024" version="1.1" xmlns="http://www.w3.org/2000/svg"><path fill="#909399" d="M240.401067 96.9216l421.6832 182.3232A34.133333 34.133333 0 0 1 682.666667 310.5792v320.1536a25.5488 25.5488 0 0 0 34.133333 24.064l11.4688-4.096A34.133333 34.133333 0 0 0 750.933333 618.5472V276.138667a34.133333 34.133333 0 0 0-20.5824-31.3344L319.744 67.2768 488.106667 4.352a68.266667 68.266667 0 0 1 47.786666 0l392.533334 146.688a68.266667 68.266667 0 0 1 44.373333 63.9488v594.0224a68.266667 68.266667 0 0 1-44.373333 63.9488l-392.533334 146.688a68.266667 68.266667 0 0 1-47.786666 0l-392.533334-146.688A68.266667 68.266667 0 0 1 51.2 809.0112V214.9888A68.266667 68.266667 0 0 1 95.573333 151.04l144.827734-54.1184z" /></svg>