<?xml version="1.0" standalone="no"?><!DOCTYPE svg PUBLIC "-//W3C//DTD SVG 1.1//EN" "http://www.w3.org/Graphics/SVG/1.1/DTD/svg11.dtd"><svg class="icon" width="200px" height="200.00px" viewBox="0 0 1024 1024" version="1.1" xmlns="http://www.w3.org/2000/svg"><path fill="#909399" d="M971.06 748.237a25.6 25.6 0 0 1 21.913 46.285l-472.525 223.897a25.6 25.6 0 0 1-21.914 0L25.958 794.522a25.6 25.6 0 0 1 21.965-46.285l461.568 218.726L971.06 748.237z m0-166.247a25.6 25.6 0 1 1 21.913 46.285L520.448 852.122a25.6 25.6 0 0 1-21.914 0L25.958 628.275a25.6 25.6 0 1 1 21.965-46.285l461.568 218.624L971.06 581.99z m0-166.297a25.6 25.6 0 0 1 21.913 46.285L520.448 685.875a25.6 25.6 0 0 1-21.914 0L25.958 461.978a25.6 25.6 0 0 1 21.965-46.285l461.568 218.726L971.06 415.693z m-48.846-143.77L509.491 76.442 96.768 271.872 509.44 467.456l412.774-195.584z m70.759 23.143L520.448 518.963a25.6 25.6 0 0 1-21.914 0L25.958 295.066a25.6 25.6 0 0 1 0-46.234L498.586 24.986a25.6 25.6 0 0 1 21.913 0l472.525 223.846a25.6 25.6 0 0 1 0 46.234z" /></svg>