<?xml version="1.0" standalone="no"?><!DOCTYPE svg PUBLIC "-//W3C//DTD SVG 1.1//EN" "http://www.w3.org/Graphics/SVG/1.1/DTD/svg11.dtd"><svg class="icon" width="200px" height="200.00px" viewBox="0 0 1024 1024" version="1.1" xmlns="http://www.w3.org/2000/svg"><path fill="#909399" d="M813.9 932.8H213.2c-33.2 0-60.1-25.1-60.1-56.1V456.2c0-30.9 26.9-56.1 60.1-56.1h600.7c33.2 0 60.1 25.1 60.1 56.1v420.5c0 31-26.9 56.1-60.1 56.1zM513.5 540.4c-49.8 0-90.1 37.6-90.1 84.1 0 31 18.2 57.9 45.1 72.4v80c0 24.2 20.2 43.8 45.1 43.8 24.9 0 45.1-19.6 45.1-43.8v-80c26.8-14.5 45.1-41.4 45.1-72.4-0.1-46.5-40.5-84.1-90.3-84.1z m0-364.5c-99.5 0-180.2 75.3-180.2 168.2h-90.1c0-139.3 121-252.3 270.3-252.3s270.3 113 270.3 252.3h-90.1c0.1-92.9-80.6-168.2-180.2-168.2z m0 0" /></svg>